<?xml version="1.0" encoding="UTF-8"?>
<svg version="1.1" xmlns="http://www.w3.org/2000/svg" width="128" height="128">
<path d="M0 0 C42.24 0 84.48 0 128 0 C128 42.24 128 84.48 128 128 C85.76 128 43.52 128 0 128 C0 85.76 0 43.52 0 0 Z " fill="#F7F7F7" transform="translate(0,0)"/>
<path d="M0 0 C42.24 0 84.48 0 128 0 C128 42.24 128 84.48 128 128 C85.76 128 43.52 128 0 128 C0 85.76 0 43.52 0 0 Z M15 15 C15 47.01 15 79.02 15 112 C47.01 112 79.02 112 112 112 C112 79.99 112 47.98 112 15 C79.99 15 47.98 15 15 15 Z " fill="#F7F7F7" transform="translate(0,0)"/>
<path d="M0 0 C32.01 0 64.02 0 97 0 C97 32.01 97 64.02 97 97 C64.99 97 32.98 97 0 97 C0 64.99 0 32.98 0 0 Z M2 3 C1.89946492 5.8250333 1.86384284 8.62565285 1.87060547 11.45117188 C1.86885315 12.33728653 1.86710083 13.22340118 1.86529541 14.1363678 C1.8608756 17.08051482 1.86381533 20.02460231 1.8671875 22.96875 C1.8665145 25.00516776 1.8655445 27.04158544 1.86428833 29.07800293 C1.86281118 33.35197716 1.86496645 37.62593053 1.86962891 41.89990234 C1.8753262 47.39158539 1.87204729 52.88321957 1.86605644 58.37490082 C1.86245128 62.58177054 1.86358921 66.78862859 1.86618423 70.99549866 C1.86685363 73.02100124 1.86602465 75.04650486 1.86370468 77.07200623 C1.8611789 79.8976423 1.8650177 82.72319807 1.87060547 85.54882812 C1.86858124 86.39457901 1.86655701 87.2403299 1.86447144 88.11170959 C1.51557623 91.86059746 1.51557623 91.86059746 3 95 C5.8250333 95.10053508 8.62565285 95.13615716 11.45117188 95.12939453 C12.33728653 95.13114685 13.22340118 95.13289917 14.1363678 95.13470459 C17.08051482 95.1391244 20.02460231 95.13618467 22.96875 95.1328125 C25.00516776 95.1334855 27.04158544 95.1344555 29.07800293 95.13571167 C33.35197716 95.13718882 37.62593053 95.13503355 41.89990234 95.13037109 C47.39158539 95.1246738 52.88321957 95.12795271 58.37490082 95.13394356 C62.58177054 95.13754872 66.78862859 95.13641079 70.99549866 95.13381577 C73.02100124 95.13314637 75.04650486 95.13397535 77.07200623 95.13629532 C79.8976423 95.1388211 82.72319807 95.1349823 85.54882812 95.12939453 C86.81745445 95.13243088 86.81745445 95.13243088 88.11170959 95.13552856 C91.86059746 95.48442377 91.86059746 95.48442377 95 94 C95.10053508 91.1749667 95.13615716 88.37434715 95.12939453 85.54882812 C95.13114685 84.66271347 95.13289917 83.77659882 95.13470459 82.8636322 C95.1391244 79.91948518 95.13618467 76.97539769 95.1328125 74.03125 C95.1334855 71.99483224 95.1344555 69.95841456 95.13571167 67.92199707 C95.13718882 63.64802284 95.13503355 59.37406947 95.13037109 55.10009766 C95.1246738 49.60841461 95.12795271 44.11678043 95.13394356 38.62509918 C95.13754872 34.41822946 95.13641079 30.21137141 95.13381577 26.00450134 C95.13314637 23.97899876 95.13397535 21.95349514 95.13629532 19.92799377 C95.1388211 17.1023577 95.1349823 14.27680193 95.12939453 11.45117188 C95.13243088 10.18254555 95.13243088 10.18254555 95.13552856 8.88829041 C95.48442377 5.13940254 95.48442377 5.13940254 94 2 C91.1749667 1.89946492 88.37434715 1.86384284 85.54882812 1.87060547 C84.66271347 1.86885315 83.77659882 1.86710083 82.8636322 1.86529541 C79.91948518 1.8608756 76.97539769 1.86381533 74.03125 1.8671875 C71.99483224 1.8665145 69.95841456 1.8655445 67.92199707 1.86428833 C63.64802284 1.86281118 59.37406947 1.86496645 55.10009766 1.86962891 C49.60841461 1.8753262 44.11678043 1.87204729 38.62509918 1.86605644 C34.41822946 1.86245128 30.21137141 1.86358921 26.00450134 1.86618423 C23.97899876 1.86685363 21.95349514 1.86602465 19.92799377 1.86370468 C17.1023577 1.8611789 14.27680193 1.8650177 11.45117188 1.87060547 C10.60542099 1.86858124 9.7596701 1.86655701 8.88829041 1.86447144 C5.13940254 1.51557623 5.13940254 1.51557623 2 3 Z " fill="#000000" transform="translate(15,15)"/>
<path d="M0 0 C3.1958054 2.58384266 4.52165759 4.543897 5.9375 8.375 C5.9375 9.035 5.9375 9.695 5.9375 10.375 C2.625 10.6875 2.625 10.6875 -1.0625 10.375 C-2.875 7.9375 -2.875 7.9375 -4.0625 5.375 C-7.27944364 3.76652818 -10.58387222 3.76190851 -14.0625 4.375 C-16.75355198 6.55074416 -18.51782928 8.28565856 -20.0625 11.375 C-20.62191256 17.35641127 -20.52123534 22.25094764 -17.0625 27.375 C-13.39468328 29.82021115 -10.32796767 30.09737759 -6.0625 29.375 C-3.63130377 27.50484906 -2.42180827 26.09361655 -1.0625 23.375 C1.2475 23.375 3.5575 23.375 5.9375 23.375 C4.66164356 28.36243882 2.85168193 31.03362518 -1.0625 34.375 C-4.22259533 35.42836511 -6.6178136 35.57532888 -9.9375 35.625 C-11.48050781 35.66367188 -11.48050781 35.66367188 -13.0546875 35.703125 C-17.15463099 35.25585844 -19.67321391 33.72218651 -22.609375 30.875 C-27.82200756 24.37613343 -27.73295788 18.47796235 -27.0625 10.375 C-25.81613594 5.5847574 -23.85168977 3.03265814 -20.0625 -0.125 C-14.03771662 -3.03351612 -5.97062107 -3.01700173 0 0 Z " fill="#060606" transform="translate(59.0625,46.625)"/>
<path d="M0 0 C1.98 0 3.96 0 6 0 C4.97126952 6.87625108 3.36887527 13.2565889 1.07421875 19.81640625 C-0.0901147 23.26706721 -1.08534042 26.74195969 -2.0625 30.25 C-3.47553609 35.28778085 -5.05742492 40.14356231 -7 45 C-8.98 45 -10.96 45 -13 45 C-10.88954573 36.1112632 -8.5696306 27.31215587 -5.9375 18.5625 C-5.56987549 17.33998535 -5.56987549 17.33998535 -5.19482422 16.09277344 C-3.55459751 10.697031 -1.80920221 5.34134002 0 0 Z " fill="#0D0D0D" transform="translate(89,42)"/>
<path d="M0 0 C2.625 0.375 2.625 0.375 5 1 C5.625 2.875 5.625 2.875 6 5 C5.34 5.66 4.68 6.32 4 7 C1.375 6.625 1.375 6.625 -1 6 C-1.625 4.125 -1.625 4.125 -2 2 C-1.34 1.34 -0.68 0.68 0 0 Z " fill="#0A0A0A" transform="translate(69,75)"/>
<path d="M0 0 C2.625 0.375 2.625 0.375 5 1 C5.625 2.875 5.625 2.875 6 5 C5.34 5.66 4.68 6.32 4 7 C1.375 6.625 1.375 6.625 -1 6 C-1.625 4.125 -1.625 4.125 -2 2 C-1.34 1.34 -0.68 0.68 0 0 Z " fill="#0A0A0A" transform="translate(69,55)"/>
</svg>
