<?xml version="1.0" encoding="UTF-8"?>
<svg version="1.1" xmlns="http://www.w3.org/2000/svg" width="128" height="128">
<path d="M0 0 C42.24 0 84.48 0 128 0 C128 42.24 128 84.48 128 128 C85.76 128 43.52 128 0 128 C0 85.76 0 43.52 0 0 Z " fill="#070707" transform="translate(0,0)"/>
<path d="M0 0 C42.24 0 84.48 0 128 0 C128 42.24 128 84.48 128 128 C85.76 128 43.52 128 0 128 C0 85.76 0 43.52 0 0 Z M14 15 C13.89937253 18.00813486 13.8638526 20.99335029 13.87060547 24.00195312 C13.86885315 24.9465892 13.86710083 25.89122528 13.86529541 26.86448669 C13.8608752 30.0034262 13.86381548 33.14230987 13.8671875 36.28125 C13.86651451 38.45218924 13.86554453 40.6231284 13.86428833 42.79406738 C13.86281113 47.35051183 13.86496663 51.90693672 13.86962891 56.46337891 C13.8753262 62.31826586 13.87204732 68.17310698 13.86605644 74.02799225 C13.86245143 78.51280058 13.86358914 82.99759796 13.86618423 87.48240662 C13.86685367 89.64188136 13.8660245 91.80135709 13.86370468 93.96083069 C13.86117914 96.97326308 13.86501736 99.98562013 13.87060547 102.99804688 C13.86858124 103.89990219 13.86655701 104.80175751 13.86447144 105.73094177 C13.48241597 109.68106984 13.48241597 109.68106984 15 113 C18.00813486 113.10062747 20.99335029 113.1361474 24.00195312 113.12939453 C24.9465892 113.13114685 25.89122528 113.13289917 26.86448669 113.13470459 C30.0034262 113.1391248 33.14230987 113.13618452 36.28125 113.1328125 C38.45218924 113.13348549 40.6231284 113.13445547 42.79406738 113.13571167 C47.35051183 113.13718887 51.90693672 113.13503337 56.46337891 113.13037109 C62.31826586 113.1246738 68.17310698 113.12795268 74.02799225 113.13394356 C78.51280058 113.13754857 82.99759796 113.13641086 87.48240662 113.13381577 C89.64188136 113.13314633 91.80135709 113.1339755 93.96083069 113.13629532 C96.97326308 113.13882086 99.98562013 113.13498264 102.99804688 113.12939453 C103.89990219 113.13141876 104.80175751 113.13344299 105.73094177 113.13552856 C109.68106984 113.51758403 109.68106984 113.51758403 113 112 C113.10062747 108.99186514 113.1361474 106.00664971 113.12939453 102.99804688 C113.13114685 102.0534108 113.13289917 101.10877472 113.13470459 100.13551331 C113.1391248 96.9965738 113.13618452 93.85769013 113.1328125 90.71875 C113.13348549 88.54781076 113.13445547 86.3768716 113.13571167 84.20593262 C113.13718887 79.64948817 113.13503337 75.09306328 113.13037109 70.53662109 C113.1246738 64.68173414 113.12795268 58.82689302 113.13394356 52.97200775 C113.13754857 48.48719942 113.13641086 44.00240204 113.13381577 39.51759338 C113.13314633 37.35811864 113.1339755 35.19864291 113.13629532 33.03916931 C113.13882086 30.02673692 113.13498264 27.01437987 113.12939453 24.00195312 C113.13243088 22.64917015 113.13243088 22.64917015 113.13552856 21.26905823 C113.51758403 17.31893016 113.51758403 17.31893016 112 14 C108.99186514 13.89937253 106.00664971 13.8638526 102.99804688 13.87060547 C101.58109276 13.86797699 101.58109276 13.86797699 100.13551331 13.86529541 C96.9965738 13.8608752 93.85769013 13.86381548 90.71875 13.8671875 C88.54781076 13.86651451 86.3768716 13.86554453 84.20593262 13.86428833 C79.64948817 13.86281113 75.09306328 13.86496663 70.53662109 13.86962891 C64.68173414 13.8753262 58.82689302 13.87204732 52.97200775 13.86605644 C48.48719942 13.86245143 44.00240204 13.86358914 39.51759338 13.86618423 C37.35811864 13.86685367 35.19864291 13.8660245 33.03916931 13.86370468 C30.02673692 13.86117914 27.01437987 13.86501736 24.00195312 13.87060547 C23.10009781 13.86858124 22.19824249 13.86655701 21.26905823 13.86447144 C17.31893016 13.48241597 17.31893016 13.48241597 14 15 Z " fill="#000000" transform="translate(0,0)"/>
<path d="M0 0 C0.90185532 0.00202423 1.80371063 0.00404846 2.7328949 0.00613403 C3.67753098 0.00438171 4.62216705 0.00262939 5.59542847 0.00082397 C8.73436797 -0.00359624 11.87325164 -0.00065595 15.01219177 0.00271606 C17.18313101 0.00204307 19.35407018 0.00107309 21.52500916 -0.00018311 C26.08145361 -0.00166031 30.6378785 0.0004952 35.19432068 0.00515747 C41.04920763 0.01085477 46.90404875 0.00757588 52.75893402 0.00158501 C57.24374235 -0.00202 61.72853973 -0.0008823 66.21334839 0.0017128 C68.37282313 0.00238224 70.53229886 0.00155307 72.69177246 -0.00076675 C75.70420485 -0.00329229 78.7165619 0.00054592 81.72898865 0.00613403 C82.63084396 0.0041098 83.53269928 0.00208557 84.46188354 0 C90.61667946 0.02126625 90.61667946 0.02126625 91.73094177 1.13552856 C91.83156924 4.14366343 91.86708917 7.12887885 91.8603363 10.13748169 C91.86296478 11.55443581 91.86296478 11.55443581 91.86564636 13.00001526 C91.87006658 16.13895476 91.86712629 19.27783844 91.86375427 22.41677856 C91.86442726 24.5877178 91.86539725 26.75865697 91.86665344 28.92959595 C91.86813065 33.4860404 91.86597514 38.04246529 91.86131287 42.59890747 C91.85561557 48.45379442 91.85889446 54.30863554 91.86488533 60.16352081 C91.86849034 64.64832915 91.86735264 69.13312653 91.86475754 73.61793518 C91.8640881 75.77740993 91.86491727 77.93688565 91.86723709 80.09635925 C91.86976263 83.10879164 91.86592442 86.12114869 91.8603363 89.13357544 C91.86236053 90.03543076 91.86438477 90.93728607 91.86647034 91.86647034 C91.84520408 98.02126625 91.84520408 98.02126625 90.73094177 99.13552856 C87.72280691 99.23615603 84.73759149 99.27167596 81.72898865 99.2649231 C80.78435257 99.26667542 79.83971649 99.26842773 78.86645508 99.27023315 C75.72751558 99.27465337 72.5886319 99.27171308 69.44969177 99.26834106 C67.27875253 99.26901405 65.10781337 99.26998404 62.93687439 99.27124023 C58.38042994 99.27271744 53.82400505 99.27056193 49.26756287 99.26589966 C43.41267591 99.26020236 37.55783479 99.26348125 31.70294952 99.26947212 C27.21814119 99.27307713 22.73334381 99.27193943 18.24853516 99.26934433 C16.08906041 99.26867489 13.92958469 99.26950406 11.77011108 99.27182388 C8.7576787 99.27434942 5.74532164 99.27051121 2.7328949 99.2649231 C1.38011192 99.26795944 1.38011192 99.26795944 0 99.27105713 C-6.15479592 99.24979087 -6.15479592 99.24979087 -7.26905823 98.13552856 C-7.36968569 95.1273937 -7.40520562 92.14217828 -7.39845276 89.13357544 C-7.40020508 88.18893936 -7.4019574 87.24430328 -7.40376282 86.27104187 C-7.40818303 83.13210237 -7.40524275 79.99321869 -7.40187073 76.85427856 C-7.40254372 74.68333933 -7.4035137 72.51240016 -7.4047699 70.34146118 C-7.4062471 65.78501673 -7.40409159 61.22859184 -7.39942932 56.67214966 C-7.39373203 50.8172627 -7.39701091 44.96242159 -7.40300179 39.10753632 C-7.40660679 34.62272798 -7.40546909 30.1379306 -7.40287399 25.65312195 C-7.40220456 23.4936472 -7.40303372 21.33417148 -7.40535355 19.17469788 C-7.40787908 16.16226549 -7.40404087 13.14990843 -7.39845276 10.13748169 C-7.40047699 9.23562637 -7.40250122 8.33377106 -7.40458679 7.40458679 C-7.37950668 0.14599979 -7.258587 0.02508011 0 0 Z M-4.26905823 4.13552856 C-4.36959331 6.96056187 -4.40521539 9.76118142 -4.39845276 12.58670044 C-4.40020508 13.47281509 -4.4019574 14.35892975 -4.40376282 15.27189636 C-4.40818262 18.21604339 -4.40524289 21.16013088 -4.40187073 24.10427856 C-4.40254373 26.14069633 -4.40351372 28.17711401 -4.4047699 30.21353149 C-4.40624705 34.48750572 -4.40409177 38.7614591 -4.39942932 43.03543091 C-4.39373203 48.52711395 -4.39701094 54.01874813 -4.40300179 59.51042938 C-4.40660694 63.71729911 -4.40546902 67.92415715 -4.40287399 72.13102722 C-4.4022046 74.1565298 -4.40303358 76.18203343 -4.40535355 78.20753479 C-4.40787933 81.03317086 -4.40404053 83.85872663 -4.39845276 86.68435669 C-4.40047699 87.53010757 -4.40250122 88.37585846 -4.40458679 89.24723816 C-4.753482 92.99612602 -4.753482 92.99612602 -3.26905823 96.13552856 C-0.44402492 96.23606364 2.35659462 96.27168573 5.18211365 96.2649231 C6.0682283 96.26667542 6.95434296 96.26842773 7.86730957 96.27023315 C10.81145659 96.27465296 13.75554408 96.27171323 16.69969177 96.26834106 C18.73610953 96.26901407 20.77252722 96.26998406 22.8089447 96.27124023 C27.08291893 96.27271738 31.3568723 96.27056211 35.63084412 96.26589966 C41.12252716 96.26020236 46.61416134 96.26348128 52.10584259 96.26947212 C56.31271232 96.27307728 60.51957036 96.27193936 64.72644043 96.26934433 C66.75194301 96.26867493 68.77744664 96.26950392 70.802948 96.27182388 C73.62858407 96.27434967 76.45413984 96.27051087 79.2797699 96.2649231 C80.54839622 96.26795944 80.54839622 96.26795944 81.84265137 96.27105713 C85.59153923 96.61995234 85.59153923 96.61995234 88.73094177 95.13552856 C88.83147685 92.31049526 88.86709894 89.50987571 88.8603363 86.68435669 C88.86208862 85.79824203 88.86384094 84.91212738 88.86564636 83.99916077 C88.87006617 81.05501374 88.86712644 78.11092625 88.86375427 75.16677856 C88.86442727 73.1303608 88.86539727 71.09394312 88.86665344 69.05752563 C88.86813059 64.78355141 88.86597532 60.50959803 88.86131287 56.23562622 C88.85561557 50.74394318 88.85889449 45.252309 88.86488533 39.76062775 C88.86849049 35.55375802 88.86735257 31.34689997 88.86475754 27.14002991 C88.86408814 25.11452733 88.86491712 23.0890237 88.86723709 21.06352234 C88.86976287 18.23788627 88.86592408 15.41233049 88.8603363 12.58670044 C88.86337265 11.31807411 88.86337265 11.31807411 88.86647034 10.02381897 C89.21536554 6.2749311 89.21536554 6.2749311 87.73094177 3.13552856 C84.90590847 3.03499349 82.10528892 2.9993714 79.2797699 3.00613403 C78.39365524 3.00438171 77.50754059 3.00262939 76.59457397 3.00082397 C73.65042695 2.99640417 70.70633946 2.9993439 67.76219177 3.00271606 C65.72577401 3.00204306 63.68935633 3.00107307 61.65293884 2.99981689 C57.37896461 2.99833975 53.10501124 3.00049502 48.83103943 3.00515747 C43.33935638 3.01085477 37.8477222 3.00757585 32.35604095 3.00158501 C28.14917123 2.99797985 23.94231318 2.99911777 19.73544312 3.0017128 C17.70994053 3.00238219 15.68443691 3.00155321 13.65893555 2.99923325 C10.83329948 2.99670746 8.0077437 3.00054626 5.18211365 3.00613403 C4.33636276 3.0041098 3.49061188 3.00208557 2.61923218 3 C-1.12965569 2.65110479 -1.12965569 2.65110479 -4.26905823 4.13552856 Z " fill="#D4D4D4" transform="translate(21.269058227539063,13.864471435546875)"/>
<path d="M0 0 C3.1958054 2.58384266 4.52165759 4.543897 5.9375 8.375 C5.9375 9.035 5.9375 9.695 5.9375 10.375 C2.625 10.6875 2.625 10.6875 -1.0625 10.375 C-2.875 7.9375 -2.875 7.9375 -4.0625 5.375 C-7.27944364 3.76652818 -10.58387222 3.76190851 -14.0625 4.375 C-16.75355198 6.55074416 -18.51782928 8.28565856 -20.0625 11.375 C-20.62191256 17.35641127 -20.52123534 22.25094764 -17.0625 27.375 C-13.39468328 29.82021115 -10.32796767 30.09737759 -6.0625 29.375 C-3.63130377 27.50484906 -2.42180827 26.09361655 -1.0625 23.375 C1.2475 23.375 3.5575 23.375 5.9375 23.375 C4.66164356 28.36243882 2.85168193 31.03362518 -1.0625 34.375 C-4.22259533 35.42836511 -6.6178136 35.57532888 -9.9375 35.625 C-11.48050781 35.66367188 -11.48050781 35.66367188 -13.0546875 35.703125 C-17.15463099 35.25585844 -19.67321391 33.72218651 -22.609375 30.875 C-27.82200756 24.37613343 -27.73295788 18.47796235 -27.0625 10.375 C-25.81613594 5.5847574 -23.85168977 3.03265814 -20.0625 -0.125 C-14.03771662 -3.03351612 -5.97062107 -3.01700173 0 0 Z " fill="#F7F7F7" transform="translate(59.0625,46.625)"/>
<path d="M0 0 C1.98 0 3.96 0 6 0 C4.8604387 8.74318582 2.24040818 16.88200328 -0.47265625 25.23046875 C-2.21836489 30.61514991 -3.74407003 36.04795209 -5.23828125 41.5078125 C-6 44 -6 44 -7 45 C-8.99958364 45.04080783 -11.00045254 45.04254356 -13 45 C-10.88954573 36.1112632 -8.5696306 27.31215587 -5.9375 18.5625 C-5.56987549 17.33998535 -5.56987549 17.33998535 -5.19482422 16.09277344 C-3.55459751 10.697031 -1.80920221 5.34134002 0 0 Z " fill="#F2F2F2" transform="translate(89,42)"/>
<path d="M0 0 C2.625 0.375 2.625 0.375 5 1 C5.625 2.875 5.625 2.875 6 5 C5.34 5.66 4.68 6.32 4 7 C1.375 6.625 1.375 6.625 -1 6 C-1.625 4.125 -1.625 4.125 -2 2 C-1.34 1.34 -0.68 0.68 0 0 Z " fill="#F4F4F4" transform="translate(69,75)"/>
<path d="M0 0 C2.625 0.375 2.625 0.375 5 1 C5.625 2.875 5.625 2.875 6 5 C5.34 5.66 4.68 6.32 4 7 C1.375 6.625 1.375 6.625 -1 6 C-1.625 4.125 -1.625 4.125 -2 2 C-1.34 1.34 -0.68 0.68 0 0 Z " fill="#F4F4F4" transform="translate(69,55)"/>
</svg>
