<?xml version="1.0" encoding="UTF-8"?>
<svg version="1.1" xmlns="http://www.w3.org/2000/svg" width="128" height="128">
<path d="M0 0 C32.67 0 65.34 0 99 0 C99 32.67 99 65.34 99 99 C66.33 99 33.66 99 0 99 C0 66.33 0 33.66 0 0 Z M4 4 C4 34.03 4 64.06 4 95 C34.03 95 64.06 95 95 95 C95 64.97 95 34.94 95 4 C64.97 4 34.94 4 4 4 Z " fill="#000000" transform="translate(14,14)"/>
<path d="M0 0 C3.36580894 2.48006974 3.91538329 3.57691647 4.75 7.75 C4.8325 8.8225 4.915 9.895 5 11 C1.75 11.375 1.75 11.375 -2 11 C-2.61875 10.01 -3.2375 9.02 -3.875 8 C-5.61625566 4.8723614 -5.61625566 4.8723614 -8.06640625 4.42578125 C-12.222883 4.22720164 -14.45949516 4.65092396 -18 6.9375 C-20.62877888 10.96281767 -21.29409337 14.22098273 -21 19 C-19.96542892 23.14612197 -18.6419793 25.5720138 -15 28 C-11.92027656 28.58985495 -9.06964325 28.67341351 -6 28 C-4.61061923 26.03852126 -3.2739589 24.03833424 -2 22 C1.75 21.625 1.75 21.625 5 22 C4.93107574 25.44621303 4.79182907 28.05814016 2.515625 30.765625 C-2.72013631 35.37488496 -6.85722202 36.32406193 -13.7578125 36.2109375 C-18.70251855 35.74575609 -21.39357954 33.63398503 -24.75 30.125 C-29.05338832 24.14807177 -29.7078755 19.25572387 -29 12 C-27.7544119 6.39485356 -25.52673432 2.66449921 -21 -1 C-14.26034073 -4.93146791 -6.52027561 -3.57975916 0 0 Z " fill="#000000" transform="translate(60,47)"/>
<path d="M0 0 C1.134375 0.020625 2.26875 0.04125 3.4375 0.0625 C1.93467826 8.65005279 -0.44403344 16.89136139 -2.9309082 25.23339844 C-3.6313666 27.58386382 -4.32496466 29.93627479 -5.01757812 32.2890625 C-5.46054387 33.78657483 -5.90388919 35.28397494 -6.34765625 36.78125 C-6.55495865 37.48326538 -6.76226105 38.18528076 -6.97584534 38.90856934 C-8.44600317 43.82950634 -8.44600317 43.82950634 -9.5625 46.0625 C-11.8725 46.0625 -14.1825 46.0625 -16.5625 46.0625 C-15.91432484 40.55026459 -14.654451 35.42186961 -13.09375 30.1015625 C-12.85338013 29.2703891 -12.61301025 28.4392157 -12.36535645 27.58285522 C-11.85994484 25.83924262 -11.35221752 24.09629974 -10.84228516 22.35400391 C-10.05929663 19.67654596 -9.28499782 16.99668259 -8.51171875 14.31640625 C-8.01873914 12.61964341 -7.5252672 10.92302353 -7.03125 9.2265625 C-6.68278015 8.02043808 -6.68278015 8.02043808 -6.32727051 6.78994751 C-4.3542304 0.07639001 -4.3542304 0.07639001 0 0 Z " fill="#000000" transform="translate(92.5625,40.9375)"/>
<path d="M0 0 C4.55555556 0.55555556 4.55555556 0.55555556 6 2 C6.1875 4.4375 6.1875 4.4375 6 7 C5.34 7.66 4.68 8.32 4 9 C-0.55555556 8.44444444 -0.55555556 8.44444444 -2 7 C-2.1875 4.5625 -2.1875 4.5625 -2 2 C-1.34 1.34 -0.68 0.68 0 0 Z " fill="#000000" transform="translate(69,74)"/>
<path d="M0 0 C4.55555556 0.55555556 4.55555556 0.55555556 6 2 C6.1875 4.4375 6.1875 4.4375 6 7 C5.34 7.66 4.68 8.32 4 9 C-0.55555556 8.44444444 -0.55555556 8.44444444 -2 7 C-2.1875 4.5625 -2.1875 4.5625 -2 2 C-1.34 1.34 -0.68 0.68 0 0 Z " fill="#000000" transform="translate(69,54)"/>
</svg>
